<mxfile host="app.diagrams.net" modified="2024-06-20T05:07:58.647Z" agent="Mozilla/5.0 (Macintosh; Intel Mac OS X 10.15; rv:126.0) Gecko/20100101 Firefox/126.0" version="24.5.5" etag="4OXf1rTxEWKXlvL_-JQK" type="github">
  <diagram name="Page-1" id="YFt6SwmdgjD7Zw13KfLr">
    <mxGraphModel>
      <root>
        <mxCell id="0" />
        <mxCell id="1" parent="0" />
      </root>
    </mxGraphModel>
  </diagram>
</mxfile>
